<?xml version="1.0" encoding="utf-8" ?>
<svg baseProfile="full" height="300" version="1.1" width="300" xmlns="http://www.w3.org/2000/svg" xmlns:ev="http://www.w3.org/2001/xml-events" xmlns:xlink="http://www.w3.org/1999/xlink"><defs><filter height="140%" id="shadow" width="140%" x="-20%" y="-20%"><feOffset dx="4" dy="4" in="SourceAlpha" result="offset" /><feGaussianBlur in="offset" result="blur" stdDeviation="4" /><feMerge><feMergeNode in="blur" /><feMergeNode in="SourceGraphic" /></feMerge></filter><radialGradient cx="50%" cy="50%" id="grad" r="80%"><stop offset="0" stop-color="#F1C40F" /><stop offset="1" stop-color="#F39C12" /></radialGradient></defs><rect fill="url(#grad) none" filter="url(#shadow)" height="300" rx="20" ry="20" width="300" x="0" y="0" /><g transform="translate(20,20) scale(0.9)"><line stroke="#FFFFFF" stroke-linecap="round" stroke-width="2" x1="40" x2="260" y1="73" y2="73" /><circle cx="25" cy="73" fill="#FFFFFF" r="3" /><circle cx="25" cy="73" fill="#FFFFFF" fill-opacity="0.7" r="1.5" /><polyline fill="none" points="15,73 18,79 21,70" stroke="#FFFFFF" stroke-linecap="round" stroke-linejoin="round" stroke-width="2" /><line stroke="#FFFFFF" stroke-linecap="round" stroke-width="2" x1="40" x2="260" y1="106" y2="106" /><circle cx="25" cy="106" fill="#FFFFFF" r="3" /><circle cx="25" cy="106" fill="#FFFFFF" fill-opacity="0.7" r="1.5" /><polyline fill="none" points="15,106 18,112 21,103" stroke="#FFFFFF" stroke-linecap="round" stroke-linejoin="round" stroke-width="2" /><line stroke="#FFFFFF" stroke-linecap="round" stroke-width="2" x1="40" x2="260" y1="139" y2="139" /><circle cx="25" cy="139" fill="#FFFFFF" r="3" /><circle cx="25" cy="139" fill="#FFFFFF" fill-opacity="0.7" r="1.5" /><polyline fill="none" points="15,139 18,145 21,136" stroke="#FFFFFF" stroke-linecap="round" stroke-linejoin="round" stroke-width="2" /><line stroke="#FFFFFF" stroke-linecap="round" stroke-width="2" x1="40" x2="260" y1="172" y2="172" /><circle cx="25" cy="172" fill="#FFFFFF" r="3" /><circle cx="25" cy="172" fill="#FFFFFF" fill-opacity="0.7" r="1.5" /><polyline fill="none" points="15,172 18,178 21,169" stroke="#FFFFFF" stroke-linecap="round" stroke-linejoin="round" stroke-width="2" /><line stroke="#FFFFFF" stroke-linecap="round" stroke-width="2" x1="40" x2="260" y1="205" y2="205" /><circle cx="25" cy="205" fill="#FFFFFF" r="3" /><circle cx="25" cy="205" fill="#FFFFFF" fill-opacity="0.7" r="1.5" /><polyline fill="none" points="15,205 18,211 21,202" stroke="#FFFFFF" stroke-linecap="round" stroke-linejoin="round" stroke-width="2" /><path d="M70,50 Q90,30 110,50 T150,50 Q170,70 150,90 T110,90 Q90,70 70,50 Z" fill="none" stroke="#FFFFFF" stroke-linecap="round" stroke-linejoin="round" stroke-width="3" /><path d="M70,50 Q90,30 110,50 T150,50 Q170,70 150,90 T110,90 Q90,70 70,50 Z" fill="none" stroke="#ECF0F1" stroke-linecap="round" stroke-linejoin="round" stroke-width="1" transform="translate(2,2)" /><path d="M85,65 L100,80 L120,55" fill="none" stroke="#FFF176" stroke-linecap="round" stroke-linejoin="round" stroke-width="3" /></g></svg>